_________________________  Visit us at _________________________
  
http://p2pdl.com  ____________________________  http://p2pdl.com


Nanban 2012 DVDRip x264 AAC ESubs - ViZNU

				
Genre: Comedy | Drama | Romance  
Three friends and the successes achieved in their afterlife, due to one of their extraordinary friend. 
Director: S. Shankar
Stars:  Vijay, Jiiva and Srikanth.
Rated: N/a 
http://www.imdb.com/title/tt2180477/ 
http://cinemahouse.in/movie/233/Nanban
Encoder Notes: Ripped straight from DVD, hence video has transparent watermarks. Take it or leave it!

General
Movie name                     : Nanban 2012
Format                         : MPEG-4
Format profile                 : Base Media
File size                      : 699 MiB
Duration                       : 3h 0mn
Overall bit rate mode          : Variable
Overall bit rate               : 540 Kbps
Source                         : NTSC DVDR


Video
ID                             : 1
Format                         : AVC
Format/Info                    : Advanced Video Codec
Duration                       : 3h 0mn
Bit rate                       : 497 Kbps
Width                          : 608 pixels
Height                         : 256 pixels
Display aspect ratio           : 2.40:1
Frame rate mode                : Constant
Frame rate                     : 29.970 fps
Stream size                    : 643 MiB (92%)
Writing library                : x264 core 129 r2230

Audio
ID                             : 2
Format                         : AAC
Format/Info                    : Advanced Audio Codec
Duration                       : 3h 0mn
Bit rate mode                  : Variable
Bit rate                       : 39.9 Kbps
Maximum bit rate               : 49.6 Kbps
Channel(s)                     : 2 channels / 1 channel / 1 channel
Channel positions              : Front: L R / Front: C / Front: C
Sampling rate                  : 48.0 KHz / 48.0 KHz / 24.0 KHz
Stream size                    : 51.7 MiB (7%)
Language                       : Tamil

Subtitle                       : Yes(English)

Screens:
 
http://www.shotpix.com/images/94000226108480017492.png 
http://www.shotpix.com/images/74295433338422772146.png 
http://www.shotpix.com/images/50864703944211364092.png 
http://www.shotpix.com/images/43487013081238216491.png 
http://www.shotpix.com/images/16203226411001370396.png 
http://www.shotpix.com/images/22336383109984718503.jpg


----------------------------------------------------------------------------------------------------


Recommend to you to use latest version of VLC player. Install K-Lite Codec Pack or shark007 codecs
in case of any kind of problem in playback (For non-VLC Media Player users). Alternatively, install
Core AVC codecs, the fastest decoder that there is coupled with Community Center Codec Pack and play
on Windows Media Player Classic. Check sample to be sure.
Enjoy!

Greets to: Vitamin_X, a2zRG, srkfan, MgB, Stumpie1971, Sheychi, StyLishSaLH and, Masta staff members at
ExtraTorrent, TPB,KAT, 1337x, PublicHD, Ahashare, BTScene, SilverTorrent, LimeTorrents, TorrentMafia,
P2PDL, and all others.

Encoder Notes: Looking For Early Access To Anything You Can Provide DVDScr, R5, DVDR, BluRay, Direct
Audio, Early Music Releases, Seedboxes, Dedicated Servers anything u can provide, Advance / Promo CDs/
DVDs. If You Got anything to offer contact me at "prg@hush.com".

Facebook Fan Page: www . facebook . com / p2pdl